<?xml version="1.0" standalone="no"?>
<!DOCTYPE svg PUBLIC "-//W3C//DTD SVG 20010904//EN"
 "http://www.w3.org/TR/2001/REC-SVG-20010904/DTD/svg10.dtd">
<svg version="1.0" xmlns="http://www.w3.org/2000/svg"
 width="1024.000000pt" height="1024.000000pt" viewBox="0 0 1024.000000 1024.000000"
 preserveAspectRatio="xMidYMid meet">

<g transform="translate(0.000000,1024.000000) scale(0.100000,-0.100000)"
fill="#000000" stroke="none">
<path d="M5105 7850 c-38 -4 -99 -13 -135 -20 -36 -6 -85 -15 -110 -20 -62
-10 -152 -39 -317 -102 -226 -85 -463 -241 -660 -436 -215 -212 -405 -531
-483 -812 -7 -25 -16 -56 -20 -70 -4 -14 -13 -59 -19 -100 -7 -41 -16 -97 -21
-123 -6 -29 -10 -435 -10 -992 0 -901 1 -945 19 -987 44 -104 102 -103 339 8
41 19 76 34 78 34 2 0 43 18 90 40 47 22 88 40 90 40 3 0 43 18 90 40 47 22
88 40 90 40 23 0 188 90 217 118 76 73 71 24 69 727 -2 387 2 667 8 725 36
324 157 542 390 696 98 65 153 91 260 122 73 20 317 23 380 3 131 -40 172 -58
250 -109 203 -135 360 -345 415 -557 22 -86 36 -457 27 -751 l-8 -270 -27 -47
c-16 -26 -45 -58 -65 -70 -37 -23 -127 -67 -137 -67 -3 0 -44 -18 -91 -40 -47
-22 -88 -40 -90 -40 -4 0 -47 -19 -154 -67 -30 -14 -77 -34 -104 -45 -27 -10
-70 -28 -95 -40 -25 -11 -64 -28 -86 -38 -22 -10 -75 -32 -117 -49 -42 -17
-110 -46 -150 -64 -40 -19 -89 -40 -108 -47 -19 -8 -73 -31 -118 -52 -46 -21
-86 -38 -88 -38 -2 0 -27 -11 -56 -24 -29 -13 -93 -40 -143 -61 -49 -21 -94
-42 -99 -46 -6 -5 -16 -9 -23 -9 -7 0 -48 -16 -90 -36 -43 -20 -100 -45 -127
-56 -27 -10 -68 -28 -91 -38 -23 -10 -66 -29 -96 -40 -147 -58 -318 -144 -385
-193 -101 -74 -206 -235 -234 -357 -6 -30 -16 -71 -21 -91 -5 -20 -9 -151 -9
-291 0 -291 5 -318 79 -426 149 -220 452 -229 667 -22 85 82 140 172 163 265
26 108 34 129 56 165 44 70 100 105 305 193 58 25 135 59 173 76 37 17 70 31
72 31 2 0 28 11 57 24 77 34 208 92 328 143 58 25 123 53 145 63 22 10 63 28
90 40 28 12 75 34 105 47 86 40 259 112 320 135 80 29 161 22 201 -18 49 -49
58 -113 59 -396 0 -320 16 -391 127 -582 149 -255 436 -393 657 -315 170 60
261 171 285 344 8 51 11 581 10 1613 0 1578 -2 1640 -39 1792 -6 25 -15 63
-20 85 -16 75 -27 110 -69 212 -78 195 -190 379 -334 550 -85 101 -287 280
-407 362 -80 54 -248 143 -350 185 -25 10 -61 25 -80 34 -42 19 -156 51 -225
63 -27 5 -72 13 -100 19 -140 28 -343 36 -500 20z"/>
</g>
</svg>
